<svg xmlns="http://www.w3.org/2000/svg" xmlns:xlink="http://www.w3.org/1999/xlink" width="306.28" height="274.382" viewBox="0 0 306.28 274.382">
  <defs>
    <linearGradient id="linear-gradient" x1="0.14" y1="0.14" x2="1.156" y2="1.156" gradientUnits="objectBoundingBox">
      <stop offset="0" stop-color="#fff"/>
      <stop offset="1" stop-color="#e6e7e8"/>
    </linearGradient>
    <filter id="Ellipse_1" x="275.376" y="174.735" width="26.011" height="26.011" filterUnits="userSpaceOnUse">
      <feOffset dx="4.201" dy="4.201" input="SourceAlpha"/>
      <feGaussianBlur stdDeviation="2.101" result="blur"/>
      <feFlood flood-color="#aecece" flood-opacity="0.749"/>
      <feComposite operator="in" in2="blur"/>
      <feComposite in="SourceGraphic"/>
    </filter>
    <linearGradient id="linear-gradient-2" x1="0.14" y1="0.14" x2="1.156" y2="1.156" gradientUnits="objectBoundingBox">
      <stop offset="0" stop-color="#fff"/>
      <stop offset="1" stop-color="#f1f2f2"/>
    </linearGradient>
    <filter id="Ellipse_3" x="24.969" y="24.969" width="224.443" height="224.443" filterUnits="userSpaceOnUse">
      <feOffset input="SourceAlpha"/>
      <feGaussianBlur stdDeviation="1.417" result="blur-2"/>
      <feFlood flood-color="#b2b2b2" flood-opacity="0.749"/>
      <feComposite operator="in" in2="blur-2"/>
      <feComposite in="SourceGraphic"/>
    </filter>
    <filter id="Ellipse_4" x="151.758" y="59.93" width="154.522" height="154.522" filterUnits="userSpaceOnUse">
      <feOffset input="SourceAlpha"/>
      <feGaussianBlur stdDeviation="3.484" result="blur-3"/>
      <feFlood flood-color="#b2b2b2" flood-opacity="0.749"/>
      <feComposite operator="in" in2="blur-3"/>
      <feComposite in="SourceGraphic"/>
    </filter>
    <linearGradient id="linear-gradient-3" x1="0.041" y1="0.049" x2="0.999" y2="1.162" xlink:href="#linear-gradient"/>
    <filter id="Path_206" x="28.666" y="39.993" width="253.599" height="219.54" filterUnits="userSpaceOnUse">
      <feOffset dx="3.67" dy="3.67" input="SourceAlpha"/>
      <feGaussianBlur stdDeviation="1.625" result="blur-4"/>
      <feFlood flood-color="#aecece" flood-opacity="0.749"/>
      <feComposite operator="in" in2="blur-4"/>
      <feComposite in="SourceGraphic"/>
    </filter>
    <linearGradient id="linear-gradient-4" y1="0.5" x2="1" y2="0.5" gradientUnits="objectBoundingBox">
      <stop offset="0.235" stop-color="#d7573d"/>
      <stop offset="0.546" stop-color="#d4553c"/>
      <stop offset="0.727" stop-color="#cc5239"/>
      <stop offset="0.874" stop-color="#be4c35"/>
      <stop offset="1" stop-color="#ab452f"/>
    </linearGradient>
    <filter id="Ellipse_5" x="29.297" y="143.095" width="124.928" height="124.928" filterUnits="userSpaceOnUse">
      <feOffset input="SourceAlpha"/>
      <feGaussianBlur stdDeviation="2.603" result="blur-5"/>
      <feFlood flood-color="#b2b2b2" flood-opacity="0.749"/>
      <feComposite operator="in" in2="blur-5"/>
      <feComposite in="SourceGraphic"/>
    </filter>
    <filter id="Ellipse_6" x="34.513" y="148.312" width="114.495" height="114.495" filterUnits="userSpaceOnUse">
      <feOffset input="SourceAlpha"/>
      <feGaussianBlur stdDeviation="1.417" result="blur-6"/>
      <feFlood flood-color="#b2b2b2" flood-opacity="0.749"/>
      <feComposite operator="in" in2="blur-6"/>
      <feComposite in="SourceGraphic"/>
    </filter>
    <filter id="Ellipse_7" x="31.54" y="42.868" width="77.055" height="77.055" filterUnits="userSpaceOnUse">
      <feOffset input="SourceAlpha"/>
      <feGaussianBlur stdDeviation="1.417" result="blur-7"/>
      <feFlood flood-color="#b2b2b2" flood-opacity="0.749"/>
      <feComposite operator="in" in2="blur-7"/>
      <feComposite in="SourceGraphic"/>
    </filter>
    <filter id="Ellipse_8" x="178.244" y="86.415" width="101.551" height="101.551" filterUnits="userSpaceOnUse">
      <feOffset input="SourceAlpha"/>
      <feGaussianBlur stdDeviation="2.557" result="blur-8"/>
      <feFlood flood-color="#b2b2b2" flood-opacity="0.749"/>
      <feComposite operator="in" in2="blur-8"/>
      <feComposite in="SourceGraphic"/>
    </filter>
    <linearGradient id="linear-gradient-5" x1="0.313" y1="-0.198" x2="0.685" y2="1.19" gradientUnits="objectBoundingBox">
      <stop offset="0" stop-color="#566f7a"/>
      <stop offset="0.502" stop-color="#d7573d"/>
      <stop offset="1" stop-color="#f49c22"/>
    </linearGradient>
    <filter id="Ellipse_9" x="105.322" y="105.322" width="66.859" height="66.859" filterUnits="userSpaceOnUse">
      <feOffset dx="1.561" dy="1.561" input="SourceAlpha"/>
      <feGaussianBlur stdDeviation="1.417" result="blur-9"/>
      <feFlood flood-color="#b2b2b2" flood-opacity="0.749"/>
      <feComposite operator="in" in2="blur-9"/>
      <feComposite in="SourceGraphic"/>
    </filter>
    <filter id="Ellipse_11" x="14.726" y="129.745" width="47.875" height="47.875" filterUnits="userSpaceOnUse">
      <feOffset dx="5.252" dy="5.252" input="SourceAlpha"/>
      <feGaussianBlur stdDeviation="2.626" result="blur-10"/>
      <feFlood flood-color="#aecece" flood-opacity="0.749"/>
      <feComposite operator="in" in2="blur-10"/>
      <feComposite in="SourceGraphic"/>
    </filter>
    <linearGradient id="linear-gradient-8" x1="0.082" y1="0.082" x2="1.068" y2="1.068" xlink:href="#linear-gradient"/>
    <filter id="Ellipse_12" x="186.599" y="216.086" width="31.366" height="31.366" filterUnits="userSpaceOnUse">
      <feOffset dx="3.88" dy="3.88" input="SourceAlpha"/>
      <feGaussianBlur stdDeviation="1.94" result="blur-11"/>
      <feFlood flood-color="#aecece" flood-opacity="0.749"/>
      <feComposite operator="in" in2="blur-11"/>
      <feComposite in="SourceGraphic"/>
    </filter>
    <filter id="Ellipse_13" x="126.05" y="25.344" width="37.495" height="37.496" filterUnits="userSpaceOnUse">
      <feOffset dx="2.835" dy="2.835" input="SourceAlpha"/>
      <feGaussianBlur stdDeviation="1.417" result="blur-12"/>
      <feFlood flood-color="#aecece" flood-opacity="0.749"/>
      <feComposite operator="in" in2="blur-12"/>
      <feComposite in="SourceGraphic"/>
    </filter>
    <filter id="Path_207" x="36.652" y="185.386" width="97.815" height="75.282" filterUnits="userSpaceOnUse">
      <feOffset input="SourceAlpha"/>
      <feGaussianBlur stdDeviation="1.417" result="blur-13"/>
      <feFlood flood-color="#b2b2b2" flood-opacity="0.749"/>
      <feComposite operator="in" in2="blur-13"/>
      <feComposite in="SourceGraphic"/>
    </filter>
    <linearGradient id="linear-gradient-10" y1="0.5" x2="1" y2="0.5" gradientUnits="objectBoundingBox">
      <stop offset="0" stop-color="#808285"/>
      <stop offset="1" stop-color="#58595b"/>
    </linearGradient>
    <filter id="Path_208" x="9.661" y="20.989" width="72.224" height="108.902" filterUnits="userSpaceOnUse">
      <feOffset input="SourceAlpha"/>
      <feGaussianBlur stdDeviation="3.764" result="blur-14"/>
      <feFlood flood-color="#b2b2b2" flood-opacity="0.749"/>
      <feComposite operator="in" in2="blur-14"/>
      <feComposite in="SourceGraphic"/>
    </filter>
    <filter id="Path_209" x="108.863" y="76.619" width="14.571" height="30.898" filterUnits="userSpaceOnUse">
      <feOffset input="SourceAlpha"/>
      <feGaussianBlur stdDeviation="1.417" result="blur-15"/>
      <feFlood flood-color="#b2b2b2" flood-opacity="0.749"/>
      <feComposite operator="in" in2="blur-15"/>
      <feComposite in="SourceGraphic"/>
    </filter>
    <filter id="Path_210" x="60.454" y="116.122" width="42.606" height="18.64" filterUnits="userSpaceOnUse">
      <feOffset input="SourceAlpha"/>
      <feGaussianBlur stdDeviation="1.417" result="blur-16"/>
      <feFlood flood-color="#b2b2b2" flood-opacity="0.749"/>
      <feComposite operator="in" in2="blur-16"/>
      <feComposite in="SourceGraphic"/>
    </filter>
    <linearGradient id="linear-gradient-12" x1="0" y1="0.5" x2="1" y2="0.5" xlink:href="#linear-gradient-10"/>
    <filter id="Path_212" x="159.158" y="137.669" width="44.858" height="57.844" filterUnits="userSpaceOnUse">
      <feOffset input="SourceAlpha"/>
      <feGaussianBlur stdDeviation="3.744" result="blur-17"/>
      <feFlood flood-color="#b2b2b2" flood-opacity="0.749"/>
      <feComposite operator="in" in2="blur-17"/>
      <feComposite in="SourceGraphic"/>
    </filter>
    <filter id="Path_213" x="206.759" y="66.143" width="93.308" height="142.095" filterUnits="userSpaceOnUse">
      <feOffset input="SourceAlpha"/>
      <feGaussianBlur stdDeviation="3.744" result="blur-18"/>
      <feFlood flood-color="#b2b2b2" flood-opacity="0.749"/>
      <feComposite operator="in" in2="blur-18"/>
      <feComposite in="SourceGraphic"/>
    </filter>
    <linearGradient id="linear-gradient-13" x1="0" y1="0.5" x2="1" y2="0.5" xlink:href="#linear-gradient-10"/>
  </defs>
  <g id="center-logo" transform="translate(-157.537 -295.603)">
    <g transform="matrix(1, 0, 0, 1, 157.54, 295.6)" filter="url(#Ellipse_1)">
      <circle id="Ellipse_1-2" data-name="Ellipse 1" cx="5.868" cy="5.868" r="5.868" transform="translate(277.48 188.43) rotate(-81.13)" fill="url(#linear-gradient)"/>
    </g>
    <path id="Path_204" data-name="Path 204" d="M294.727,346.731a86.063,86.063,0,1,0,86.063,86.063A86.062,86.062,0,0,0,294.727,346.731Zm0,162.409a76.346,76.346,0,1,1,76.347-76.346A76.347,76.347,0,0,1,294.727,509.14Z" fill="#ececec"/>
    <circle id="Ellipse_2" data-name="Ellipse 2" cx="95.934" cy="95.934" r="95.934" transform="translate(159.057 432.794) rotate(-45)" fill="none" stroke="#bcbec0" stroke-linecap="round" stroke-miterlimit="10" stroke-width="2.15" stroke-dasharray="0 6.6"/>
    <g transform="matrix(1, 0, 0, 1, 157.54, 295.6)" filter="url(#Ellipse_3)">
      <circle id="Ellipse_3-2" data-name="Ellipse 3" cx="76.346" cy="76.346" r="76.346" transform="translate(29.22 137.19) rotate(-45)" fill="url(#linear-gradient-2)"/>
    </g>
    <g transform="matrix(1, 0, 0, 1, 157.54, 295.6)" filter="url(#Ellipse_4)">
      <circle id="Ellipse_4-2" data-name="Ellipse 4" cx="55.16" cy="55.16" r="55.16" transform="translate(162.21 177.46) rotate(-76.08)" fill="#f49c22"/>
    </g>
    <path id="Path_205" data-name="Path 205" d="M386.387,388.094a44.716,44.716,0,0,0-42.731,32.114,11.293,11.293,0,0,1-10.811,8.182h-.034a18.068,18.068,0,0,1-15.507-8.926,26.21,26.21,0,0,0-34.208-10.2,11.717,11.717,0,0,1-13.452-2.3l-.218-.217a16.228,16.228,0,0,1-3.768-16.773,40.236,40.236,0,0,0,2.089-15.091c-1.024-20-18.7-37.372-38.722-38.062a40.2,40.2,0,0,0-41.6,41.491c.651,20.377,18.407,38.166,38.783,38.855a40.031,40.031,0,0,0,22.236-5.8,13.549,13.549,0,0,1,15.737,1.044l.314.261a14,14,0,0,1,4.7,14,26.413,26.413,0,0,0-.661,7.857,26.078,26.078,0,0,0,6.033,15.039,5.755,5.755,0,0,1,.038,7.306l-.246.3a6.726,6.726,0,0,1-7.8,1.949,45.538,45.538,0,1,0,14.482,9.553,6.743,6.743,0,0,1-1.318-7.955l.071-.136a5.768,5.768,0,0,1,6.887-2.81,25.836,25.836,0,0,0,5.652,1.147,26.236,26.236,0,0,0,24.973-12.763,18.1,18.1,0,0,1,15.533-8.969h0a11.313,11.313,0,0,1,10.82,8.211,44.7,44.7,0,1,0,42.723-57.315Z" fill="none" stroke="#e5e9e9" stroke-miterlimit="10" stroke-width="5.3"/>
    <g transform="matrix(1, 0, 0, 1, 157.54, 295.6)" filter="url(#Path_206)">
      <path id="Path_206-2" data-name="Path 206" d="M386.387,388.094a44.716,44.716,0,0,0-42.731,32.114,11.293,11.293,0,0,1-10.811,8.182h-.034a18.068,18.068,0,0,1-15.507-8.926,26.21,26.21,0,0,0-34.208-10.2,11.717,11.717,0,0,1-13.452-2.3l-.218-.217a16.228,16.228,0,0,1-3.768-16.773,40.236,40.236,0,0,0,2.089-15.091c-1.024-20-18.7-37.372-38.722-38.062a40.2,40.2,0,0,0-41.6,41.491c.651,20.377,18.407,38.166,38.783,38.855a40.031,40.031,0,0,0,22.236-5.8,13.549,13.549,0,0,1,15.737,1.044l.314.261a14,14,0,0,1,4.7,14,26.413,26.413,0,0,0-.661,7.857,26.078,26.078,0,0,0,6.033,15.039,5.755,5.755,0,0,1,.038,7.306l-.246.3a6.726,6.726,0,0,1-7.8,1.949,45.538,45.538,0,1,0,14.482,9.553,6.743,6.743,0,0,1-1.318-7.955l.071-.136a5.768,5.768,0,0,1,6.887-2.81,25.836,25.836,0,0,0,5.652,1.147,26.236,26.236,0,0,0,24.973-12.763,18.1,18.1,0,0,1,15.533-8.969h0a11.313,11.313,0,0,1,10.82,8.211,44.7,44.7,0,1,0,42.723-57.315Z" transform="translate(-157.54 -295.6)" fill="url(#linear-gradient-3)"/>
    </g>
    <g transform="matrix(1, 0, 0, 1, 157.54, 295.6)" filter="url(#Ellipse_5)">
      <circle id="Ellipse_5-2" data-name="Ellipse 5" cx="41.209" cy="41.209" r="41.209" transform="matrix(0.91, -0.42, 0.42, 0.91, 37.1, 185.33)" fill="url(#linear-gradient-4)"/>
    </g>
    <g transform="matrix(1, 0, 0, 1, 157.54, 295.6)" filter="url(#Ellipse_6)">
      <circle id="Ellipse_6-2" data-name="Ellipse 6" cx="38.64" cy="38.64" r="38.64" transform="translate(40.84 185.73) rotate(-23.72)" fill="none" stroke="#fff" stroke-miterlimit="10" stroke-width="3.151"/>
    </g>
    <g transform="matrix(1, 0, 0, 1, 157.54, 295.6)" filter="url(#Ellipse_7)">
      <circle id="Ellipse_7-2" data-name="Ellipse 7" cx="34.275" cy="34.275" r="34.275" transform="translate(35.79 47.12)" fill="#566f7a"/>
    </g>
    <g transform="matrix(1, 0, 0, 1, 157.54, 295.6)" filter="url(#Ellipse_8)">
      <circle id="Ellipse_8-2" data-name="Ellipse 8" cx="40.48" cy="40.48" r="40.48" transform="translate(188.54 96.71)" fill="none" stroke="#f49c22" stroke-miterlimit="10" stroke-width="5.252"/>
    </g>
    <g transform="matrix(1, 0, 0, 1, 157.54, 295.6)" filter="url(#Ellipse_9)">
      <circle id="Ellipse_9-2" data-name="Ellipse 9" cx="29.178" cy="29.178" r="29.178" transform="translate(108.01 108.01)" fill="url(#linear-gradient-5)"/>
    </g>
    <circle id="Ellipse_10" data-name="Ellipse 10" cx="25.599" cy="25.599" r="25.599" transform="translate(265.437 454.071) rotate(-80.996)" fill="url(#linear-gradient-2)"/>
    <g transform="matrix(1, 0, 0, 1, 157.54, 295.6)" filter="url(#Ellipse_11)">
      <circle id="Ellipse_11-2" data-name="Ellipse 11" cx="13.35" cy="13.35" r="13.35" transform="matrix(0.23, -0.97, 0.97, 0.23, 17.35, 158.36)" fill="url(#linear-gradient)"/>
    </g>
    <g transform="matrix(1, 0, 0, 1, 157.54, 295.6)" filter="url(#Ellipse_12)">
      <circle id="Ellipse_12-2" data-name="Ellipse 12" cx="9.863" cy="9.863" r="9.863" transform="translate(188.54 218.03)" fill="url(#linear-gradient-8)"/>
    </g>
    <g transform="matrix(1, 0, 0, 1, 157.54, 295.6)" filter="url(#Ellipse_13)">
      <circle id="Ellipse_13-2" data-name="Ellipse 13" cx="14.496" cy="14.496" r="14.496" transform="translate(127.47 26.76)" fill="url(#linear-gradient)"/>
    </g>
    <g id="Group_4" data-name="Group 4">
      <g transform="matrix(1, 0, 0, 1, 157.54, 295.6)" filter="url(#Path_207)">
        <path id="Path_207-2" data-name="Path 207" d="M287.011,534.495a50.348,50.348,0,0,1-85.69-48.594" transform="translate(-157.54 -295.6)" fill="none" stroke="#707070" stroke-linecap="round" stroke-miterlimit="10" stroke-width="1.05"/>
      </g>
      <circle id="Ellipse_14" data-name="Ellipse 14" cx="1.583" cy="1.583" r="1.583" transform="translate(199.694 484.318)" fill="url(#linear-gradient-10)"/>
    </g>
    <g id="Group_5" data-name="Group 5">
      <g transform="matrix(1, 0, 0, 1, 157.54, 295.6)" filter="url(#Path_208)">
        <path id="Path_208-2" data-name="Path 208" d="M195.488,413.46A48.589,48.589,0,0,1,227.6,328.41" transform="translate(-157.54 -295.6)" fill="none" stroke="#707070" stroke-linecap="round" stroke-miterlimit="10" stroke-width="1.05"/>
      </g>
      <g transform="matrix(1, 0, 0, 1, 157.54, 295.6)" filter="url(#Path_209)">
        <path id="Path_209-2" data-name="Path 209" d="M276.193,377a48.4,48.4,0,0,1-4.84,21.167" transform="translate(-157.54 -295.6)" fill="none" stroke="#707070" stroke-linecap="round" stroke-miterlimit="10" stroke-width="1.05"/>
      </g>
      <g transform="matrix(1, 0, 0, 1, 157.54, 295.6)" filter="url(#Path_210)">
        <path id="Path_210-2" data-name="Path 210" d="M255.612,416.709a48.37,48.37,0,0,1-28.008,8.879q-2.423,0-4.788-.233" transform="translate(-157.54 -295.6)" fill="none" stroke="#707070" stroke-linecap="round" stroke-miterlimit="10" stroke-width="1.05"/>
      </g>
      <circle id="Ellipse_15" data-name="Ellipse 15" cx="1.583" cy="1.583" r="1.583" transform="translate(226.022 326.827)" fill="url(#linear-gradient-10)"/>
      <path id="Path_211" data-name="Path 211" d="M277.776,377a1.583,1.583,0,1,1-1.583-1.583A1.583,1.583,0,0,1,277.776,377Z" fill="url(#linear-gradient-12)"/>
    </g>
    <g id="Group_6" data-name="Group 6">
      <g transform="matrix(1, 0, 0, 1, 157.54, 295.6)" filter="url(#Path_212)">
        <path id="Path_212-2" data-name="Path 212" d="M349.581,479.144a59.278,59.278,0,0,1-21.03-34.016" transform="translate(-157.54 -295.6)" fill="none" stroke="#707070" stroke-linecap="round" stroke-miterlimit="10" stroke-width="1.05"/>
      </g>
      <g transform="matrix(1, 0, 0, 1, 157.54, 295.6)" filter="url(#Path_213)">
        <path id="Path_213-2" data-name="Path 213" d="M376.138,374.417a59.294,59.294,0,1,1,10.418,117.666" transform="translate(-157.54 -295.6)" fill="none" stroke="#707070" stroke-linecap="round" stroke-miterlimit="10" stroke-width="1.05"/>
      </g>
      <path id="Path_214" data-name="Path 214" d="M388.131,492.083a1.583,1.583,0,1,1-1.583-1.582A1.583,1.583,0,0,1,388.131,492.083Z" fill="url(#linear-gradient-13)"/>
    </g>
  </g>
</svg>
