<svg xmlns="http://www.w3.org/2000/svg" width="37.389" height="48.697" viewBox="0 0 37.389 48.697">
  <g id="HS" transform="translate(-231.511 -477.384)">
    <path id="Path_340" data-name="Path 340" d="M251.665,477.384q1.473.709,2.947,1.419c.877.424,1.092.854.916,1.692a8.613,8.613,0,0,1,1.029,1.143,1.783,1.783,0,0,1-.008,1.775l-1.113,2.317a18.248,18.248,0,0,1,7.388,6.892,8.472,8.472,0,0,0-6.091,2.082c-.778-.707-1.5-1.415-2.28-2.056-.534-.441-1.144-.789-1.758-1.2-.1.19-.189.332-.261.48q-1.056,2.18-2.109,4.36c-.779,1.613-1.392,1.9-3.1,1.426-.075.132-.15.27-.23.4a1.928,1.928,0,0,1-2.463.839c-.584-.243-1.15-.531-1.716-.815a1.947,1.947,0,0,1-.99-2.7c.036-.087.075-.172.12-.277-.074-.05-.135-.1-.2-.134a1.935,1.935,0,0,1-.834-2.721c.753-1.588,1.526-3.166,2.29-4.748q2-4.146,4.01-8.294a2.024,2.024,0,0,1,2.887-1.224l.995-.653Z" fill="rgb(86, 111, 122)"/>
    <path id="Path_341" data-name="Path 341" d="M256.771,526.081h-25.26c.566-.813,1.042-1.585,1.6-2.289a13.59,13.59,0,0,1,5.379-4.042.605.605,0,0,0,.428-.668c-.015-2.981-.008-5.963-.008-8.944v-.529h-2.847c0-.7-.037-1.35.012-1.99a1.256,1.256,0,0,1,1.113-1.015c.142-.014.286-.009.428-.009H250.7c1.13,0,1.6.46,1.6,1.577,0,.443,0,.886,0,1.421h-1.591v1.871A8.9,8.9,0,0,0,256.641,507c2.9,1.832,2.9,1.832,6.056,2.14-.414.717-.767,1.415-1.2,2.062a15.6,15.6,0,0,1-9.9,6.612c-.913.212-.858.2-.934,1.121a1.577,1.577,0,0,0,.958,1.734A13.062,13.062,0,0,1,256.771,526.081Z" fill="rgb(86, 111, 122)"/>
    <path id="Path_342" data-name="Path 342" d="M255.551,500.876a6.675,6.675,0,1,1,6.661,6.651A6.653,6.653,0,0,1,255.551,500.876Z" fill="rgb(86, 111, 122)"/>
  </g>
</svg>
