<svg xmlns="http://www.w3.org/2000/svg" viewBox="0 0 48 48" enable-background="new 0 0 48 48">
                              <g fill="#455A64"><path d="M27 6h6v22h-6zM19 33c-3.3 0-6-2.7-6-6v-3c0-3.3 2.7-6 6-6h6v-4h-6c-5.5 0-10 4.5-10 10v3c0 5.5 4.5 10 10 10h17v-4h-17zM9 44h30v-2c0-1.1-.9-2-2-2h-26c-1.1 0-2 .9-2 2v2zM25 20h-5c-2.2 0-4-1.8-4-4s1.8-4 4-4h5v8z"></path></g>
                              <g fill="#3dc753"><path d="M33 26h-6c-1.1 0-2-.9-2-2v-16h10v16c0 1.1-.9 2-2 2zM26 4h8v2h-8z"></path>
                              <circle cx="21" cy="16" r="2"></circle>
                              <path d="M21.6 31.9c-.4-.6-1-.9-1.7-.9h-1.9c-.7 0-1.3.3-1.7.9l-5.3 8.1h16l-5.4-8.1zm-2.6 5.1c-1.1 0-2-.9-2-2s.9-2 2-2 2 .9 2 2-.9 2-2 2z">
                              </path></g>
                              </svg>