<?xml version="1.0" encoding="utf-8"?>
<!-- Generator: Adobe Illustrator 16.0.0, SVG Export Plug-In . SVG Version: 6.00 Build 0)  -->
<!DOCTYPE svg PUBLIC "-//W3C//DTD SVG 1.1//EN" "http://www.w3.org/Graphics/SVG/1.1/DTD/svg11.dtd">
<svg version="1.1" id="Layer_1" xmlns="http://www.w3.org/2000/svg" xmlns:xlink="http://www.w3.org/1999/xlink" x="0px" y="0px"
	 width="40px" height="40px" viewBox="0 0 40 40" enable-background="new 0 0 40 40" xml:space="preserve">
<g>
	<path fill="#455A64" d="M17.5,23.334h-5V5h5V23.334z M10,27.5v3.334h14.166c4.584,0,8.334-3.75,8.334-8.334V20
		c0-4.583-3.75-8.333-8.334-8.333h-5V15h5c2.75,0,5,2.25,5,5v2.5c0,2.75-2.25,5-5,5H10z M32.5,35c0-0.916-0.75-1.666-1.666-1.666
		H9.166C8.25,33.334,7.5,34.084,7.5,35v1.666h25V35z M19.166,10h4.168c1.832,0,3.332,1.5,3.332,3.333c0,1.833-1.5,3.333-3.332,3.333
		h-4.168V10z"/>
</g>
<g>
	<path fill="#3DC753" d="M10.834,20V6.667h8.332V20c0,0.916-0.75,1.666-1.666,1.666h-5C11.584,21.666,10.834,20.916,10.834,20z
		 M18.334,5h-6.668V3.333h6.668V5z"/>
	<circle fill="#3DC753" cx="22.5" cy="13.333" r="1.666"/>
	<path fill="#3DC753" d="M17.5,33.334h13.334l-4.418-6.75c-0.332-0.5-0.832-0.75-1.416-0.75h-1.584c-0.582,0-1.082,0.25-1.416,0.75
		L17.5,33.334z M22.5,29.166c0-0.916,0.75-1.666,1.666-1.666c0.918,0,1.668,0.75,1.668,1.666c0,0.918-0.75,1.668-1.668,1.668
		C23.25,30.834,22.5,30.084,22.5,29.166z"/>
</g>
</svg>
