<svg xmlns="http://www.w3.org/2000/svg" width="51.265" height="44.209" viewBox="0 0 51.265 44.209">
  <g id="SR" transform="translate(-200.494 -358.529)">
    <path id="Path_343" data-name="Path 343" d="M249.638,358.529H202.615a2.122,2.122,0,0,0-2.121,2.121v28.116a2.122,2.122,0,0,0,2.121,2.122h47.023a2.122,2.122,0,0,0,2.121-2.122V360.65A2.122,2.122,0,0,0,249.638,358.529Zm-23.512,31.806a1,1,0,1,1,1-1A1,1,0,0,1,226.126,390.335Zm15.34-.411a.59.59,0,1,1,.59-.59A.59.59,0,0,1,241.466,389.924Zm1.985,0a.59.59,0,1,1,.59-.59A.59.59,0,0,1,243.451,389.924Zm1.986,0a.59.59,0,1,1,.59-.59A.59.59,0,0,1,245.437,389.924Zm1.985,0a.59.59,0,1,1,.59-.59A.59.59,0,0,1,247.422,389.924Zm1.443-2.742a.707.707,0,0,1-.707.707H204.1a.706.706,0,0,1-.707-.707V362.235a.707.707,0,0,1,.707-.708h44.063a.708.708,0,0,1,.707.708Z" fill="#ecf0f1"/>
    <path id="Path_344" data-name="Path 344" d="M222.566,390.888v10.476h7.121V390.888Zm3.56,7.1a1.865,1.865,0,1,1,1.865-1.864A1.865,1.865,0,0,1,226.126,397.99Z" fill="#ecf0f1"/>
    <rect id="Rectangle_2" data-name="Rectangle 2" width="19.858" height="1.374" transform="translate(216.197 401.364)" fill="#ecf0f1"/>
    <path id="Path_345" data-name="Path 345" d="M237.926,376.713a2.5,2.5,0,0,1-2.5,2.5h0v.3h-1.252v-7.931h.626s-.015-.093-.046-.269a5.357,5.357,0,0,0-.184-.736c-.06-.151-.125-.319-.2-.5l-.279-.564a8.081,8.081,0,0,0-.868-1.213l-.277-.311-.316-.293a8.34,8.34,0,0,0-.693-.577,8.687,8.687,0,0,0-1.687-.946,9.384,9.384,0,0,0-1.981-.591c-.345-.075-.705-.1-1.058-.149-.359-.022-.722-.028-1.083-.043-.328.015-.747.021-1.1.044-.347.054-.693.073-1.038.149a9.512,9.512,0,0,0-1.98.591,8.738,8.738,0,0,0-1.687.946,8.127,8.127,0,0,0-.692.577l-.316.294-.277.31a8.04,8.04,0,0,0-.869,1.213l-.279.563c-.071.182-.138.349-.2.5a5.732,5.732,0,0,0-.185.736c-.029.176-.046.269-.046.269h.627v7.931h-.362c0,2.957,2.569,4.91,6.8,5.3a1.623,1.623,0,0,1,1.6-1.072,1.43,1.43,0,1,1,0,2.825,1.585,1.585,0,0,1-1.634-1.228c-4.484-.424-7.3-2.611-7.3-5.823h-.361v-.3h0a2.5,2.5,0,0,1-2.5-2.5v-2.318a2.5,2.5,0,0,1,2.5-2.5h0v-.3h.626s0-.1-.011-.272a4.3,4.3,0,0,1,.037-.782q.05-.25.112-.551c.051-.2.128-.407.2-.634a6.815,6.815,0,0,1,.755-1.414,7.3,7.3,0,0,1,1.272-1.427,7.988,7.988,0,0,1,1.792-1.177l.512-.24.537-.2a8.039,8.039,0,0,1,1.119-.312c.382-.089.788-.123,1.185-.185.394-.031.732-.042,1.158-.064.395.022.789.035,1.18.066.39.062.782.1,1.163.183a8.044,8.044,0,0,1,1.119.314l.537.194.512.24a8.073,8.073,0,0,1,1.791,1.177,7.326,7.326,0,0,1,1.273,1.426,6.936,6.936,0,0,1,.755,1.414c.073.228.149.436.2.634s.079.385.112.551a4.254,4.254,0,0,1,.038.782c-.008.177-.012.272-.012.272h.626v.3h0a2.5,2.5,0,0,1,2.5,2.5Z" fill="#ecf0f1"/>
  </g>
</svg>
