<svg xmlns="http://www.w3.org/2000/svg" width="239.023" height="234.297" viewBox="0 0 239.023 234.297">
  <path id="Path_1" data-name="Path 1" d="M97.338,172.337h11.331V193.2h37.77V172.337h11.334V193.2h37.771V172.337h11.331V301.878H119.6v-16.9h-7.876v16.9H97.338l0-16.9H89.456l-.23-.006-.085-.005c-.092-.006-.184-.015-.272-.028l-.184-.029-.04-.007-.177-.037-.041-.009a3.794,3.794,0,0,1-.389-.114l-.082-.027-.054-.02-.06-.022-.022-.01-.073-.03-.031-.012-.073-.034-.035-.015-.031-.014-.079-.039-.032-.015-.044-.026-.047-.022-.048-.027-.072-.039-.007,0-.088-.052,0,0-.048-.028-.132-.087-.048-.033-.183-.133c-.063-.051-.126-.1-.19-.157h0l-.025-.024c-.1-.085-.189-.175-.281-.268l-.006-.007-.117-.129c-.064-.071-.123-.145-.184-.221l-.123-.168-.088-.134-.019-.03-.1-.167-.044-.078-.026-.042-.028-.056-.079-.162,0-.007-.079-.183-.007-.011-.028-.072L85.3,282.1l-.022-.058-.053-.158-.016-.053-.01-.028-.019-.063-.041-.15-.034-.167-.01-.051-.012-.065-.01-.049-.006-.05,0-.026c-.015-.1-.028-.2-.034-.3l0-.032c-.007-.1-.01-.2-.01-.3v-33.3a4.414,4.414,0,0,1,1.033-2.839l.063-.075c.051-.061.105-.119.161-.176l.048-.046.044-.044c.088-.085.177-.166.271-.245l.118-.093.161-.117.126-.087.047-.03.212-.124.158-.087.044-.021.051-.027.139-.061.158-.067.053-.02.054-.021.209-.069a4.48,4.48,0,0,1,1.288-.191h7.879l0-70.467Zm46.075-39.29h5.828a2.042,2.042,0,0,1,2.035,2.036v6.447a2.042,2.042,0,0,1-2.035,2.036h-5.828a2.042,2.042,0,0,1-2.037-2.036v-6.447a2.042,2.042,0,0,1,2.037-2.036Zm88.505,166.262L212.476,278.9V293.48l5.556,5.829Zm29.691,0H247.722l-34.8-36.537H226.81l34.8,36.537Zm29.693,0-34.8-36.537h-13.89l34.8,36.537Zm29.687,0H307.1l-34.8-36.537h13.89l34.8,36.537Zm.445-30.707-5.553-5.83H301.992l19.442,20.412V268.6ZM209.873,301.527H324.041V260.555h-39V189.346l.171-.379-.171-.378V117l.171-.379-.171-.379v-5.911H295.7l7.765-5.466L295.7,99.4h-.941L268.027,79.021l-.483-.368h-.613l-16.416,0h-.2l-.145.028-9.123,1.771h-.37v.071L143.41,99.4h-3.033l-7.764,5.466,7.764,5.466h3.557v19.881h4.786V110.336h91.961V260.555H209.873v40.972Zm36.463-40.972V110.336h2.53v5.909l-.171.381.171.38v71.58l-.171.381.171.381v71.207ZM240.681,99.4H162.363l78.318-15.2V99.4Zm5.655-16.3,4.371-.848,13.46,0L256.447,99.4H246.336v-16.3Zm17.4,66.932H252.483v-25l11.252,25Zm17.692-25v25H270.179l11.248-25Zm0,28.614v26.9l-12.1-26.9Zm0,43.727v27.3H269.14l12.287-27.3Zm0,30.921V252.9L270.359,228.3Zm-28.944,24.59V228.3h11.068l-11.068,24.59Zm0-28.207v-27.3l12.291,27.3Zm0-44.134v-26.9h12.108l-12.108,26.9Zm19.054-94.315L288.806,99.4H277.463l-5.926-13.167ZM253.462,187.17,266.957,157.2l13.491,29.975Zm26.977,3.618-13.482,29.953h0l-13.482-29.953Zm-26.98,68.734,13.5-29.986,13.5,29.986Zm24.967-149.186,2.831,6.29-14.3,31.773-14.3-31.773,2.834-6.29ZM152.094,145.468c2.246,1.086,4.51,2.127,6.061,5.931a11.769,11.769,0,0,1-.669,10.144c-3.889,6.8-13.081,7.408-17.753,3.1-3.115-2.865-3.993-7.361-2.7-8.4.367-.294,1.245,2.442,3.965,3.915a8.071,8.071,0,0,0,9.258-.882c3.3-3.516,2.085-8.322-1.449-9.818a22.344,22.344,0,0,1-3.51-1.685,3.329,3.329,0,0,1-1.267-1.387h5.209a4.838,4.838,0,0,0,2.853-.927ZM260.408,99.4l6.549-14.552L273.505,99.4ZM94.65,282.961h3.837l-5.607-6.3h3.371l5.61,6.3H105.7l-5.61-6.3h3.374l5.607,6.3h3.664l-5.607-6.3H110.5l5.61,6.3h3.838l-5.61-6.3h3.373l5.611,6.3h3.834l-5.607-6.3h3.374l5.607,6.3h3.8l-5.607-6.3H132.1l5.607,6.3h3.838l-5.61-6.3H139.3l4.609,5.177a2.415,2.415,0,0,0,.379-1.293v-2.592l-1.15-1.292h1.15v-26.32h-2.7l-4.906-5.514H132.85l4.906,5.514h-3.374l-4.906-5.514h-3.8l4.906,5.514h-3.374l-4.906-5.514h-3.838l4.909,5.514H120l-4.9-5.514h-3.838l4.905,5.514h-3.373l-4.906-5.514h-3.664l4.909,5.514h-3.374l-4.909-5.514H97.006l4.909,5.514H98.541l-4.906-5.514H89.8l4.906,5.514h-3.37l-3.911-4.394a2.412,2.412,0,0,0-.382,1.3v2.591l.445.5H87.04v26.32h2l5.607,6.3ZM87.04,278.2v2.344a2.428,2.428,0,0,0,2.416,2.418h1.82L87.04,278.2Zm57.251-28.62v-2.335a2.431,2.431,0,0,0-2.42-2.419h-1.813l4.233,4.754Zm-38.181,54.2h19.108v9.175H106.11v-9.175Zm71.9-55.445v23.186h10.15V248.33Zm-2.3,23.186V248.33h-10.74v23.186h10.74Zm19.832-66.982H157.773v30.951h37.771V204.534Zm-86.875,0v30.951h37.77V204.534Z" transform="translate(-85.018 -78.653)" fill="#fff" fill-rule="evenodd"/>
</svg>
