<svg id="TS" xmlns="http://www.w3.org/2000/svg" width="44.872" height="46.851" viewBox="0 0 44.872 46.851">
  <path id="Path_337" data-name="Path 337" d="M407.056,425.023a.26.26,0,0,1-.036-.087,2.492,2.492,0,0,0-.467-1.4c-.224-.309-.46-.61-.69-.915s-.475-.637-.718-.952c-.26-.337-.529-.668-.789-1.006-.309-.4-.613-.806-.919-1.209-.113-.148-.227-.3-.343-.442-.264-.334-.511-.683-.8-.994a4.185,4.185,0,0,0-2.575-1.331,5.736,5.736,0,0,0-.753-.046c-.939,0-1.879-.008-2.818.006a4.071,4.071,0,0,0-1.469.313.294.294,0,0,0-.169.176,7.806,7.806,0,0,1-1.457,2.2,8.029,8.029,0,0,1-1.23,1.048c-.256.183-.542.323-.815.482-.034.02-.07.039-.116.064l.069.056c-.013,0-.026.017-.034.015-.161-.056-.285.046-.419.1a7.376,7.376,0,0,1-2.234.558c-.271.023-.543.027-.815.046a1.955,1.955,0,0,1-.3.026l.061-.016-.017-.023c-.092-.007-.185-.008-.276-.022-.376-.058-.751-.118-1.126-.183a.179.179,0,0,0-.173.044,3.686,3.686,0,0,0-1.062,1.543,3.583,3.583,0,0,0-.208,1.509c.025.312.038.625.053.937.02.414.037.828.066,1.242l.013-.174h.036l.023.342-.064-.046c0,.008-.011.015-.011.021.019.316.04.632.056.949.03.584.072,1.168.078,1.752a7.177,7.177,0,0,1-.084,1.054c-.117.823-.25,1.644-.378,2.466-.1.638-.2,1.275-.3,1.913a7.781,7.781,0,0,0-.124,1.027,4.5,4.5,0,0,0,.114.876,2.48,2.48,0,0,0,.157.434c.012.03.042.054.1.091a.724.724,0,0,1-.13.149q-2.959,2-5.924,4-2.148,1.449-4.3,2.9c-.1.069-.146.04-.2-.041a.969.969,0,0,0-.58-.456,4.19,4.19,0,0,0-.6-.072q-1.264-.083-2.53-.155a.253.253,0,0,1-.22-.14c-.312-.508-.634-1.011-.95-1.517-.08-.126-.149-.259-.226-.387-.029-.048-.043-.118-.133-.092-.018.005-.06-.056-.082-.092,0-.006.036-.039.071-.077a.791.791,0,0,1-.146-.133c-.04-.057-.049-.134-.086-.2q-.383-.636-.772-1.269c-.243-.4-.488-.787-.733-1.18-.3-.484-.605-.966-.9-1.45q-.756-1.223-1.51-2.446c-.09-.147-.183-.293-.285-.432a.784.784,0,0,0-.166-.125,1.185,1.185,0,0,0-.181-.138.939.939,0,0,0-1.319.786c0,.093,0,.187,0,.28q0,9.554,0,19.106a1.038,1.038,0,0,0,.269.782.9.9,0,0,0,.519.272.433.433,0,0,1,.088.034h19.521a.483.483,0,0,1,.064-.033,2.6,2.6,0,0,0,.373-.126.933.933,0,0,0,.2-1.481c-.172-.167-.352-.323-.528-.485-.334-.309-.666-.619-1-.927-.3-.275-.6-.547-.895-.826a.282.282,0,0,1-.077-.156c-.039-.268-.068-.538-.1-.807-.1-.817-.2-1.636-.318-2.452a1.211,1.211,0,0,0-.172-.409.681.681,0,0,0-.4-.321,3.606,3.606,0,0,0-.5-.074c-.008,0-.018.025-.03.028a.415.415,0,0,1-.116.026c-.052-.13-.165-.068-.247-.073-.6-.036-1.208-.066-1.813-.1-.434-.02-.869-.032-1.3-.057a.287.287,0,0,1-.183-.085c-.123-.135-.234-.283-.346-.429s-.237-.316-.36-.48c.036-.027.061-.048.087-.065l4.347-2.932q3.1-2.089,6.2-4.177a.178.178,0,0,1,.142-.018,3.128,3.128,0,0,0,1.555.194,2.935,2.935,0,0,0,1.357-.535,2.258,2.258,0,0,0,.2-.2c.126-.117.254-.231.379-.349a.723.723,0,0,0,.094-.119c.084-.126.166-.254.248-.381l-.024-.016-.089.109c-.057-.09-.018-.137.05-.158.134-.042.162-.158.205-.266a4.108,4.108,0,0,0,.217-1.1.2.2,0,0,1,.064-.131c.558-.38,1.119-.755,1.679-1.13a.772.772,0,0,1,.1-.041c-.208.355-.4.678-.588,1-.159.278-.314.558-.47.837l.014-.009-.017,0a.467.467,0,0,1-.038.092c-.034.049-.079.092-.109.143-.116.194-.227.391-.341.586-.5.847-1,1.691-1.489,2.543a6.316,6.316,0,0,0-.54.985,1.468,1.468,0,0,1-.212.3,1.046,1.046,0,0,0-.191.689c.03.434.052.868.074,1.3.029.535.049,1.071.082,1.606.065,1.042.139,2.083.2,3.125.016.267,0,.535.015.8.02.454.048.908.073,1.362q.059,1.059.118,2.117a3.061,3.061,0,0,0,.171.846l.044-.129.03,0-.012.159c0,.041-.021.09,0,.12a5,5,0,0,0,.357.621,2.878,2.878,0,0,0,1.621,1.1,2.917,2.917,0,0,0,2.453-.425c.173-.116.372-.219.449-.439.165-.038.216-.2.3-.309a2.883,2.883,0,0,0,.528-1.766c-.01-.581-.027-1.162-.039-1.743q-.028-1.377-.054-2.754l-.024-1.3q-.027-1.518-.052-3.036a.272.272,0,0,1,.029-.151c.19-.285.386-.566.581-.848a1.037,1.037,0,0,1,.087-.092c0,.053,0,.075.006.1a1.943,1.943,0,0,0,.059.551c.2.471.43.927.649,1.389l.126-.06c0,.071-.008.121-.006.17a.406.406,0,0,0,.018.161c.288.6.581,1.2.873,1.808.152.314.31.626.456.943.193.422.423.827.61,1.254.1.233.227.455.338.685.286.592.568,1.186.854,1.777.335.691.684,1.374,1.006,2.071a3.077,3.077,0,0,0,.79,1.09,2.89,2.89,0,0,0,2.426.7,2.976,2.976,0,0,0,2.293-4.014c-.156-.41-.342-.807-.513-1.211q-.442-1.052-.883-2.105c-.111-.264-.224-.528-.336-.793l-.285-.673-1.1-2.6c-.273-.646-.548-1.291-.82-1.938a.374.374,0,0,1-.034-.176c.046-.443.1-.887.15-1.33s.111-.894.163-1.341c.061-.524.114-1.049.176-1.572.093-.778.193-1.554.287-2.331q.12-1,.235-1.995c.021-.189.039-.379.045-.569a1.906,1.906,0,0,0-.246-.689c-.07-.192-.174-.372-.262-.558q-.5-1.051-.991-2.1a.12.12,0,0,1,.051-.186q.762-.506,1.516-1.024a.156.156,0,0,1,.194,0,5.166,5.166,0,0,0,.624.308,2.773,2.773,0,0,0,1.536.106.821.821,0,0,0,.472-.169c.042-.042.141-.018.2-.049a2.832,2.832,0,0,0,1.651-2.426.287.287,0,0,1,.035-.084Zm-9.178-2.439a.28.28,0,0,1,.064-.023c.228,0,.456-.005.683.006a.228.228,0,0,1,.142.093c.268.363.531.73.795,1.1.083.115.168.229.246.348s.163.209.238.32c.235.345.485.681.728,1.021.135.187.269.374.412.574l-1.287.87Zm-7.575,8.6.043-.013c.007.015.014.029.02.045.218.524.436,1.048.649,1.574a.117.117,0,0,1-.039.1c-.267.185-.537.365-.807.545-.026.017-.055.028-.1.052Z" transform="translate(-362.184 -408.527)" fill="#fff"/>
  <path id="Path_338" data-name="Path 338" d="M381.342,408.527c-.229.033-.459.058-.686.1a5.6,5.6,0,1,0,4.556,1.172,5.466,5.466,0,0,0-3.058-1.244,1.135,1.135,0,0,1-.129-.027Z" transform="translate(-356.284 -408.527)" fill="#fff"/>
  <path id="Path_339" data-name="Path 339" d="M378.645,436.646l0-.007.017,0Z" transform="translate(-350.245 -408.527)" fill="#fff"/>
</svg>
