<svg xmlns="http://www.w3.org/2000/svg" xmlns:xlink="http://www.w3.org/1999/xlink" width="396.85" height="396.85" viewBox="0 0 396.85 396.85">
  <defs>
    <clipPath id="clip-TS_new">
      <rect width="396.85" height="396.85"/>
    </clipPath>
  </defs>
  <g id="TS_new" clip-path="url(#clip-TS_new)">
    <path id="Path_1" data-name="Path 1" d="M105.448,234.01h18.79v34.6h62.634v-34.6h18.8v34.6H268.3v-34.6h18.79V448.829H142.369V420.81H129.308v28.019h-23.86l0-28.019H92.378L92,420.8l-.141-.008c-.153-.01-.305-.025-.451-.046L91.1,420.7l-.066-.012-.294-.061-.068-.015a6.279,6.279,0,0,1-.645-.189l-.136-.045-.09-.033-.1-.036-.036-.017-.121-.05-.051-.02-.121-.056-.058-.025-.051-.023-.131-.065-.053-.025L89,419.983l-.078-.036-.08-.045-.119-.065-.012-.008-.146-.086,0-.005-.08-.046-.219-.144-.08-.055-.3-.221c-.1-.085-.209-.171-.315-.26l0,0-.041-.04c-.163-.141-.313-.29-.466-.444l-.01-.012-.194-.214c-.106-.118-.2-.24-.305-.366l-.2-.279-.146-.222-.032-.05L86,417.105l-.073-.129-.043-.07-.046-.093-.131-.269,0-.012-.131-.3-.012-.018-.046-.119-.022-.061-.036-.1-.088-.262-.027-.088-.017-.046-.032-.1-.068-.249-.056-.277-.017-.085-.02-.108-.017-.081-.01-.083-.007-.043c-.025-.164-.046-.335-.056-.5l0-.053c-.012-.168-.017-.333-.017-.5v-55.22a7.32,7.32,0,0,1,1.713-4.708l.1-.124c.085-.1.174-.2.267-.292l.08-.076.073-.073c.146-.141.294-.275.449-.406l.2-.154.267-.194.209-.144.078-.05.352-.206.262-.144.073-.035.085-.045.23-.1.262-.111.088-.033.09-.035.347-.114a7.429,7.429,0,0,1,2.136-.317h13.066l0-116.856Zm76.407-65.155h9.665a3.385,3.385,0,0,1,3.375,3.376v10.691a3.385,3.385,0,0,1-3.375,3.376h-9.665a3.386,3.386,0,0,1-3.378-3.376V172.231a3.386,3.386,0,0,1,3.378-3.376ZM328.623,444.569l-32.241-33.846V434.9l9.214,9.666Zm49.237,0H354.831l-57.711-60.59h23.032l57.708,60.59Zm49.24,0-57.711-60.59H346.356l57.712,60.59Zm49.23,0H453.3l-57.713-60.59h23.034l57.706,60.59Zm.738-50.922-9.209-9.668H444.828l32.241,33.849V393.647Zm-185,54.6H481.392V380.3H416.723V262.216l.284-.629-.284-.627V142.252l.284-.629-.284-.629v-9.8h17.669l12.877-9.064-12.877-9.064h-1.56L388.5,79.263l-.8-.61-1.017,0-27.223,0h-.325l-.24.046-15.129,2.937h-.614v.118L181.85,113.065h-5.03l-12.875,9.064,12.875,9.064h5.9v32.969h7.937V131.193h152.5V380.3H292.066v67.944ZM352.533,380.3V131.193h4.2v9.8l-.284.632.284.63v118.7l-.284.632.284.632V380.3Zm-9.378-267.238H213.28L343.155,87.858v25.206Zm9.378-27.025,7.248-1.406,22.321,0-12.8,28.435H352.533V86.039Zm28.853,110.994H362.727V155.58l18.659,41.453Zm29.339-41.454v41.454H392.072l18.653-41.454Zm0,47.451v44.6l-20.072-44.6Zm0,72.513v45.278H390.349l20.376-45.278Zm0,51.277V367.6L392.37,326.819Zm-48,40.778V326.819h18.354L362.727,367.6Zm0-46.776V275.546l20.382,45.275Zm0-73.188v-44.6h20.079l-20.079,44.6Zm31.6-156.4,28.637,21.835h-18.81L394.324,91.23ZM364.35,258.608,386.729,208.9,409.1,258.608Zm44.736,6-22.357,49.671h0l-22.357-49.671ZM364.345,378.59l22.384-49.726,22.382,49.726Zm41.4-247.4,4.695,10.431-23.714,52.689-23.72-52.689,4.7-10.431Zm-209.5,58.26c3.725,1.8,7.479,3.527,10.051,9.835a19.517,19.517,0,0,1-1.109,16.822c-6.449,11.273-21.692,12.285-29.44,5.149-5.166-4.751-6.622-12.207-4.474-13.923.609-.488,2.065,4.05,6.575,6.492a13.384,13.384,0,0,0,15.353-1.463c5.469-5.831,3.458-13.8-2.4-16.281a37.054,37.054,0,0,1-5.821-2.794,5.52,5.52,0,0,1-2.1-2.3h8.638a8.024,8.024,0,0,0,4.731-1.537Zm179.618-76.388,10.86-24.132,10.859,24.132ZM100.991,417.459h6.363l-9.3-10.451h5.59l9.3,10.451h6.365l-9.3-10.451h5.6l9.3,10.451h6.076l-9.3-10.451h5.59l9.3,10.451h6.365l-9.3-10.451h5.593l9.3,10.451h6.358l-9.3-10.451h5.6l9.3,10.451h6.3l-9.3-10.451h5.6l9.3,10.451h6.365l-9.3-10.451h5.593l7.643,8.585a4.005,4.005,0,0,0,.628-2.144v-4.3l-1.907-2.143h1.907V363.361h-4.472l-8.136-9.144h-6.365l8.136,9.144h-5.6l-8.136-9.144h-6.3l8.136,9.144h-5.6l-8.136-9.144h-6.365l8.141,9.144h-5.6l-8.134-9.144h-6.365l8.134,9.144h-5.593l-8.136-9.144h-6.076L125,363.361h-5.6l-8.141-9.144H104.9l8.141,9.144h-5.6l-8.136-9.144H92.943l8.136,9.144H95.49L89,356.075a4,4,0,0,0-.633,2.154v4.3l.738.836h-.738v43.647h3.322l9.3,10.451Zm-12.62-7.9v3.887a4.027,4.027,0,0,0,4.006,4.01H95.4l-7.025-7.9Zm94.94-47.461v-3.872a4.032,4.032,0,0,0-4.013-4.011h-3.007l7.02,7.884ZM120,451.975h31.687V467.19H120V451.975ZM239.226,360.03v38.449h16.832V360.03Zm-3.809,38.449V360.03h-17.81v38.449h17.81ZM268.3,287.4H205.668v51.326H268.3V287.4Zm-144.066,0v51.326h62.634V287.4Z" transform="translate(-85.018 -74.653)" fill="#f49c22" fill-rule="evenodd"/>
  </g>
</svg>
