<?xml version="1.0" encoding="utf-8"?>
<!-- Generator: Adobe Illustrator 16.0.0, SVG Export Plug-In . SVG Version: 6.00 Build 0)  -->
<!DOCTYPE svg PUBLIC "-//W3C//DTD SVG 1.1//EN" "http://www.w3.org/Graphics/SVG/1.1/DTD/svg11.dtd">
<svg version="1.1" id="Layer_1" xmlns="http://www.w3.org/2000/svg" xmlns:xlink="http://www.w3.org/1999/xlink" x="0px" y="0px"
	 width="40px" height="40px" viewBox="0 0 40 40" enable-background="new 0 0 40 40" xml:space="preserve">
<g>
	<path fill="#455A64" d="M31.666,13.333H15.834v-5h15.832V13.333z M32.5,34.166c0-0.916-0.75-1.666-1.666-1.666H9.166
		C8.25,32.5,7.5,33.25,7.5,34.166v1.668h25V34.166z M7.5,11.5l-1.666,2.667l5.25,3.333l9.666-6.667l-9.666-6.667L5.834,7.5
		L7.5,10.167L11,8l4.166,2.833L11,13.667L7.5,11.5z M19.166,32.5H25l7.5-23.333h-5.834L19.166,32.5z"/>
</g>
<path fill="#B89657" d="M16.666,32.5H30l-4.416-6.75C25.25,25.25,24.75,25,24.166,25h-1.582C22,25,21.5,25.25,21.166,25.75
	L16.666,32.5z M21.666,28.334c0-0.918,0.75-1.668,1.668-1.668c0.916,0,1.666,0.75,1.666,1.668C25,29.25,24.25,30,23.334,30
	C22.416,30,21.666,29.25,21.666,28.334z M24.166,10.833c0,2.75,2.25,5,5,5s5-2.25,5-5s-2.25-5-5-5S24.166,8.083,24.166,10.833z
	 M27.5,10.833c0-0.917,0.75-1.667,1.666-1.667c0.918,0,1.668,0.75,1.668,1.667c0,0.917-0.75,1.667-1.668,1.667
	C28.25,12.5,27.5,11.75,27.5,10.833z M15,6.667h2.5c0.916,0,1.666,0.75,1.666,1.667v5c0,0.917-0.75,1.667-1.666,1.667H15V6.667z"/>
</svg>
