<svg xmlns="http://www.w3.org/2000/svg" viewBox="0 0 48 48" enable-background="new 0 0 48 48" style="height: 85px;">
                            <g fill="#fff"><path d="M10 10h19v6h-19zM9 43h30v-2c0-1.1-.9-2-2-2h-26c-1.1 0-2 .9-2 2v2zM34.8 16.4l-5-3.4 5-3.4 4.2 2.6 2-3.2-6.3-4-11.6 8 11.6 8 6.3-4-2-3.2zM16 11h-7l9 28h7z"></path></g>
                            <path fill="#fff" d="M22.6 30.9c-.4-.6-1-.9-1.7-.9h-1.9c-.7 0-1.3.3-1.7.9l-5.3 8.1h16l-5.4-8.1zm-2.6 5.1c-1.1 0-2-.9-2-2s.9-2 2-2 2 .9 2 2-.9 2-2 2zM13 7c-3.3 0-6 2.7-6 6s2.7 6 6 6 6-2.7 6-6-2.7-6-6-6zm0 8c-1.1 0-2-.9-2-2s.9-2 2-2 2 .9 2 2-.9 2-2 2zM30 18h-3c-1.1 0-2-.9-2-2v-6c0-1.1.9-2 2-2h3v10z"></path></svg>