<svg xmlns="http://www.w3.org/2000/svg" xmlns:xlink="http://www.w3.org/1999/xlink" width="125" height="186.633" viewBox="0 0 125 186.633">
  <defs>
    <clipPath id="clip-Mobile-PKI-Portal">
      <rect width="125" height="186.633"/>
    </clipPath>
  </defs>
  <g id="Mobile-PKI-Portal" clip-path="url(#clip-Mobile-PKI-Portal)">
    <g id="Group_59" data-name="Group 59" transform="translate(-70.198 -8.242)">
      <path id="Path_963" data-name="Path 963" d="M178.514,11.242H87.837A10.615,10.615,0,0,0,77.2,21.88V181.753a10.616,10.616,0,0,0,10.639,10.639h90.677a10.618,10.618,0,0,0,10.642-10.639V21.88A10.617,10.617,0,0,0,178.514,11.242Zm-68.247,7.947h45.821a2.648,2.648,0,0,1,0,5.3H110.267a2.648,2.648,0,0,1,0-5.3ZM181.684,180.1H84.67V30.9h97.014Z" fill="#556f79"/>
    </g>
    <g id="_Group_" data-name="&lt;Group&gt;" transform="translate(-22 31)">
      <g id="_Group_2" data-name="&lt;Group&gt;" transform="translate(56.169 42.169)">
        <path id="_Group_3" data-name="&lt;Group&gt;" d="M406.622,287.546a2.853,2.853,0,1,1,.836,2.017A2.853,2.853,0,0,1,406.622,287.546Zm-.642-10.979a2.853,2.853,0,1,1,.836,2.017A2.853,2.853,0,0,1,405.98,276.567Zm0,21.958a2.853,2.853,0,1,1,.836,2.017A2.853,2.853,0,0,1,405.98,298.525Z" transform="translate(-355.852 -240.87)" fill="#f49c22"/>
        <path id="_Group_4" data-name="&lt;Group&gt;" d="M104.508,85.393v19.731H82.439v-3.069H72.792v3.069H63V49H90.237l14.271,10.836V75.892H101v9.5Zm-8.256,7V75.423H71.432V92.39Z" transform="translate(-63 -49)" fill="none"/>
        <rect id="_Group_5" data-name="&lt;Group&gt;" width="24.82" height="16.967" transform="translate(8.432 26.423)" fill="#f49c22"/>
      </g>
      <g id="_Group_6" data-name="&lt;Group&gt;" transform="translate(55 41)">
        <path id="_Compound_Path_" data-name="&lt;Compound Path&gt;" d="M140.185,223.169A1.169,1.169,0,0,0,139.016,222H114.169A1.169,1.169,0,0,0,113,223.169v16.954a1.169,1.169,0,0,0,1.169,1.169h24.846a1.169,1.169,0,0,0,1.169-1.169Zm-2.338,15.785H115.338V224.338h22.508Z" transform="translate(-104.523 -195.546)" fill="#556f79"/>
        <path id="_Path_" data-name="&lt;Path&gt;" d="M146.939,138.454a1.169,1.169,0,0,0,1.169-1.169v-5.115a1.169,1.169,0,0,0-2.338,0v5.115A1.169,1.169,0,0,0,146.939,138.454Zm-4.385,0a1.169,1.169,0,0,0,1.169-1.169v-5.115a1.169,1.169,0,0,0-2.338,0v5.115A1.169,1.169,0,0,0,142.554,138.454Zm8.769,0a1.169,1.169,0,0,0,1.169-1.169v-5.115a1.169,1.169,0,0,0-2.338,0v5.115A1.169,1.169,0,0,0,151.323,138.454Zm4.385,0a1.169,1.169,0,0,0,1.169-1.169v-5.115a1.169,1.169,0,0,0-2.338,0v5.115A1.169,1.169,0,0,0,155.708,138.454Zm-17.539,0a1.169,1.169,0,0,0,1.169-1.169v-5.115a1.169,1.169,0,0,0-2.338,0v5.115A1.169,1.169,0,0,0,138.169,138.454Z" transform="translate(-125.015 -117.846)" fill="#ab452f"/>
        <path id="_Compound_Path_2" data-name="&lt;Compound Path&gt;" d="M105.942,89.962a3.528,3.528,0,0,0,1.006,1.7,4.014,4.014,0,1,0,0-5.688,4.193,4.193,0,0,0-1.006,1.649h-7.1V84.846h3.359a1.172,1.172,0,0,0,1.172-1.169V79H105.3a3.5,3.5,0,0,0,1.006,1.691,4,4,0,1,0,0-5.686,4.22,4.22,0,0,0-1.006,1.656h-3.1a1.2,1.2,0,0,0-1.166,1.2v4.642H98.846V78.562a1.169,1.169,0,0,0-1.169-1.169H95.339V70.231h2.338a1.169,1.169,0,0,0,1.169-1.169V53.005a1.169,1.169,0,0,0-.462-.931L84.114,41.238A1.17,1.17,0,0,0,83.407,41H56.169A1.169,1.169,0,0,0,55,42.169V98.293a1.169,1.169,0,0,0,1.169,1.169h9.792a1.169,1.169,0,0,0,1.169-1.169v-1.9h7.308v1.9a1.169,1.169,0,0,0,1.169,1.169H97.677a1.169,1.169,0,0,0,1.169-1.169V95.223h2.192v4.6a1.109,1.109,0,0,0,1.166,1.1H105.3a3.554,3.554,0,0,0,1.006,1.709,4.006,4.006,0,1,0,0-5.653v-.033a4.159,4.159,0,0,0-1,1.639h-1.923v-4.57a1.139,1.139,0,0,0-1.172-1.13H98.846V89.962Zm2.66-2.307a1.684,1.684,0,1,1,0,2.381h0a1.682,1.682,0,0,1,0-2.38Zm-.642-10.979a1.684,1.684,0,1,1,0,2.381h0a1.682,1.682,0,0,1,0-2.38ZM96.508,97.123H76.777v-1.9a1.169,1.169,0,0,0-1.169-1.169H65.962a1.169,1.169,0,0,0-1.169,1.169v1.9H57.338V43.338H83.013L96.508,53.585V67.892H94.169A1.169,1.169,0,0,0,93,69.062v9.5a1.169,1.169,0,0,0,1.169,1.169h2.338Zm11.453,1.51a1.682,1.682,0,1,1-.494,1.191A1.682,1.682,0,0,1,107.961,98.633Z" transform="translate(-55 -41)" fill="#556f79"/>
      </g>
    </g>
  </g>
</svg>
