<svg xmlns="http://www.w3.org/2000/svg" xmlns:xlink="http://www.w3.org/1999/xlink" width="145" height="125" viewBox="0 0 145 125">
  <defs>
    <clipPath id="clip-USB">
      <rect width="145" height="125"/>
    </clipPath>
  </defs>
  <g id="USB" clip-path="url(#clip-USB)">
    <g id="Group_65" data-name="Group 65" transform="translate(2 1.714)">
      <g id="USB-2" data-name="USB" transform="translate(0 2.286)">
        <path id="Path_1000" data-name="Path 1000" d="M145.36,38.246,115.27,8.155a5.32,5.32,0,0,0-7.522,0L100.6,15.3a5.311,5.311,0,0,0-1.354,5.215,42.021,42.021,0,0,1,10.065,3.029q4.535,2.756,9.065,5.513a41.761,41.761,0,0,1,14.928,25.285,5.317,5.317,0,0,0,4.909-1.428l7.145-7.147A5.321,5.321,0,0,0,145.36,38.246Z" transform="translate(-4.917 -6.598)" fill="#556f79"/>
        <g id="Group_63" data-name="Group 63" transform="translate(0 17.274)">
          <g id="Group_61" data-name="Group 61" transform="translate(41.359)">
            <path id="Path_1001" data-name="Path 1001" d="M116.809,34.743c-.826-.813-10.751-10.254-25.168-10.254-8.09,0-15.989,3-23.475,8.9L47.9,53.635a10.183,10.183,0,0,0-3.5,6.721c-.151,2.694,1.006,5.293,3.442,7.729l.095.087a10.482,10.482,0,0,0,6.4,2.287,10.868,10.868,0,0,0,7.268-3l8.858-8.849a13.119,13.119,0,0,1,6.642-1.736,15.182,15.182,0,0,1,5.084.9h6.669c-.107-.077-.221-.146-.329-.231-.047-.048-.093-.095-.137-.143-.537-.552-1.1-1.074-1.667-1.6a19.936,19.936,0,0,0-9.62-2.6,16.348,16.348,0,0,0-8.865,2.476l-9.1,9.067a7.3,7.3,0,0,1-4.8,2.043,6.865,6.865,0,0,1-3.961-1.36c-1.613-1.636-2.391-3.262-2.312-4.838a6.529,6.529,0,0,1,2.22-4.164L70.521,36.209c6.8-5.34,13.9-8.048,21.119-8.048,13.189,0,22.524,9.13,22.615,9.219l.108.1c.954.816,23.1,20.293-.168,48.3L99.584,100.4l-.833-.274v3.865l1.831.6,16.27-16.268.113-.125C142.025,58.095,118.272,36.046,116.809,34.743Z" transform="translate(-44.392 -24.489)" fill="#556f79"/>
          </g>
          <g id="Group_62" data-name="Group 62" transform="translate(0 36.035)">
            <path id="Path_1002" data-name="Path 1002" d="M87.635,61.812H69.947a20.571,20.571,0,0,1-3.476,3.67H87.634a2.949,2.949,0,0,1,2.946,2.947v49.731a2.949,2.949,0,0,1-2.946,2.948H9.212a2.95,2.95,0,0,1-2.947-2.948V68.429a2.95,2.95,0,0,1,2.947-2.947H41.175a12.953,12.953,0,0,1-.466-2.389,11.089,11.089,0,0,1-.048-1.282H9.212a6.625,6.625,0,0,0-6.618,6.617v49.731a6.625,6.625,0,0,0,6.618,6.618H87.635a6.626,6.626,0,0,0,6.618-6.618V68.429A6.627,6.627,0,0,0,87.635,61.812Z" transform="translate(-2.594 -61.811)" fill="#556f79"/>
          </g>
        </g>
        <path id="Path_1003" data-name="Path 1003" d="M46.636,102.906a7.642,7.642,0,0,1-7.643,7.642H21.16a7.641,7.641,0,0,1-7.642-7.642V84.562A7.642,7.642,0,0,1,21.16,76.92H38.994a7.643,7.643,0,0,1,7.643,7.642v18.344Z" transform="translate(-2.897 -9.334)" fill="#556f79"/>
        <path id="Path_1004" data-name="Path 1004" d="M85.9,109.048c0,.556-.811,1.006-1.81,1.006H59.721c-1,0-1.809-.45-1.809-1.006v-.412c0-.555.809-1.006,1.809-1.006H84.094c1,0,1.81.451,1.81,1.006Z" transform="translate(-4.337 -10.113)" fill="#556f79"/>
        <path id="Path_1005" data-name="Path 1005" d="M85.9,98.667c0,.554-.811,1.006-1.81,1.006H59.721c-1,0-1.809-.452-1.809-1.006v-.412c0-.556.809-1.006,1.809-1.006H84.094c1,0,1.81.45,1.81,1.006Z" transform="translate(-4.337 -9.389)" fill="#556f79"/>
        <path id="Path_1006" data-name="Path 1006" d="M85.9,88.413c0,.555-.811,1.006-1.81,1.006H59.721c-1,0-1.809-.451-1.809-1.006V88c0-.555.809-1.006,1.809-1.006H84.094c1,0,1.81.451,1.81,1.006Z" transform="translate(-4.337 -9.754)" fill="#556f79"/>
        <path id="Path_1007" data-name="Path 1007" d="M85.9,77.942c0,.556-.811,1.006-1.81,1.006H59.721c-1,0-1.809-.45-1.809-1.006v-.412c0-.556.809-1.006,1.809-1.006H84.094c1,0,1.81.45,1.81,1.006Z" transform="translate(-4.337 -8.939)" fill="#556f79"/>
      </g>
      <path id="beneficiary-type" d="M144.822,157.13a.933.933,0,0,0,1.545-.689.9.9,0,0,0-.385-.74.062.062,0,0,0,0-.011,10.673,10.673,0,0,0-2.834-1.485,7.548,7.548,0,0,0-4.007-14.053,7.673,7.673,0,0,0-7.73,7.607,7.455,7.455,0,0,0,3.677,6.446,10.722,10.722,0,0,0-6.93,8.81.872.872,0,0,0,.849.973.945.945,0,0,0,1.036-.834c0-.325.707-7.374,9-7.837a9.784,9.784,0,0,1,5.772,1.814Zm-5.68-3.668a5.729,5.729,0,1,1,5.845-5.7A5.8,5.8,0,0,1,139.142,153.462Zm13.27,6.252H145.37a.782.782,0,1,0,0,1.565h7.042a.782.782,0,0,0,0-1.565Zm0,3.13H145.37a.782.782,0,1,0,0,1.565h7.042a.782.782,0,0,0,0-1.565Zm-3.13-4.695h3.13a.782.782,0,0,0,0-1.565h-3.13a.782.782,0,0,0,0,1.565Z" transform="translate(-113.673 -65.452)" fill="#fff"/>
    </g>
  </g>
</svg>
